<mxfile modified="2023-01-23T13:29:19.989Z" host="drawio-plugin" agent="5.0 (X11; Linux x86_64) AppleWebKit/537.36 (KHTML, like Gecko) Chrome/98.0.4758.102 Safari/537.36" etag="aUKgUCy6kQsheGhYs7t7" version="20.5.3" type="embed"><diagram id="PKrw68s-FcHz-RrZCr9i" name="Page-1"><mxGraphModel dx="610" dy="911" grid="1" gridSize="10" guides="1" tooltips="1" connect="1" arrows="1" fold="1" page="1" pageScale="1" pageWidth="827" pageHeight="1169" math="0" shadow="0"><root><mxCell id="0"/><mxCell id="1" parent="0"/><mxCell id="Gvd8Ezxa3fLg7O33Pl0G-1" value="Начало" style="rounded=1;whiteSpace=wrap;html=1;arcSize=50;" parent="1" vertex="1"><mxGeometry x="290" y="100" width="140" height="60" as="geometry"/></mxCell><mxCell id="Gvd8Ezxa3fLg7O33Pl0G-6" value="DBSCAN&lt;br&gt;Вход: Множество точек P, расстояние eps, мин. количесвто точек MinPt&lt;br&gt;Выход: множество кластеров clusters" style="text;html=1;strokeColor=none;fillColor=none;align=center;verticalAlign=middle;whiteSpace=wrap;rounded=0;" parent="1" vertex="1"><mxGeometry x="508" y="107" width="250.5" height="40" as="geometry"/></mxCell><mxCell id="Gvd8Ezxa3fLg7O33Pl0G-21" value="Цикл 1&lt;br&gt;i = 1; i &amp;lt;=A; i = i+1" style="shape=loopLimit;whiteSpace=wrap;html=1;" parent="1" vertex="1"><mxGeometry x="290" y="280" width="140" height="60" as="geometry"/></mxCell><mxCell id="Gvd8Ezxa3fLg7O33Pl0G-24" value="" style="endArrow=none;html=1;entryX=0.5;entryY=0;entryDx=0;entryDy=0;exitX=0.5;exitY=1;exitDx=0;exitDy=0;" parent="1" source="Gvd8Ezxa3fLg7O33Pl0G-21" edge="1"><mxGeometry width="50" height="50" relative="1" as="geometry"><mxPoint x="169" y="505" as="sourcePoint"/><mxPoint x="360" y="440" as="targetPoint"/></mxGeometry></mxCell><mxCell id="Gvd8Ezxa3fLg7O33Pl0G-37" value="Конец" style="rounded=1;whiteSpace=wrap;html=1;arcSize=50;" parent="1" vertex="1"><mxGeometry x="301.5" y="900" width="120" height="60" as="geometry"/></mxCell><mxCell id="Gvd8Ezxa3fLg7O33Pl0G-42" value="Вернуть clusters" style="text;html=1;resizable=0;points=[];autosize=1;align=left;verticalAlign=top;spacingTop=-4;" parent="1" vertex="1"><mxGeometry x="500" y="920" width="110" height="20" as="geometry"/></mxCell><mxCell id="18" value="" style="edgeStyle=orthogonalEdgeStyle;rounded=0;orthogonalLoop=1;jettySize=auto;html=1;endArrow=none;endFill=0;" edge="1" parent="1" source="7Xwj2gsnW8v6YeENi7_U-1" target="Gvd8Ezxa3fLg7O33Pl0G-37"><mxGeometry relative="1" as="geometry"/></mxCell><mxCell id="7Xwj2gsnW8v6YeENi7_U-1" value="Конец цикла 1" style="shape=loopLimit;whiteSpace=wrap;html=1;direction=west;" parent="1" vertex="1"><mxGeometry x="290.5" y="790" width="142" height="60" as="geometry"/></mxCell><mxCell id="7Xwj2gsnW8v6YeENi7_U-5" value="" style="endArrow=none;dashed=1;html=1;exitX=1;exitY=0.5;exitDx=0;exitDy=0;entryX=0.5;entryY=1;entryDx=0;entryDy=0;" parent="1" source="Gvd8Ezxa3fLg7O33Pl0G-37" target="7Xwj2gsnW8v6YeENi7_U-10" edge="1"><mxGeometry width="50" height="50" relative="1" as="geometry"><mxPoint x="393.5" y="680" as="sourcePoint"/><mxPoint x="473.5" y="1050" as="targetPoint"/></mxGeometry></mxCell><mxCell id="7Xwj2gsnW8v6YeENi7_U-6" value="" style="shape=partialRectangle;whiteSpace=wrap;html=1;bottom=1;right=1;left=1;top=0;fillColor=none;routingCenterX=-0.5;rotation=90;" parent="1" vertex="1"><mxGeometry x="490" y="100" width="68" height="60" as="geometry"/></mxCell><mxCell id="7Xwj2gsnW8v6YeENi7_U-9" value="" style="endArrow=none;dashed=1;html=1;entryX=0.5;entryY=1;entryDx=0;entryDy=0;" parent="1" target="7Xwj2gsnW8v6YeENi7_U-6" edge="1"><mxGeometry width="50" height="50" relative="1" as="geometry"><mxPoint x="430" y="129.5" as="sourcePoint"/><mxPoint x="470" y="130" as="targetPoint"/></mxGeometry></mxCell><mxCell id="7Xwj2gsnW8v6YeENi7_U-10" value="" style="shape=partialRectangle;whiteSpace=wrap;html=1;bottom=1;right=1;left=1;top=0;fillColor=none;routingCenterX=-0.5;rotation=90;" parent="1" vertex="1"><mxGeometry x="470" y="900" width="68" height="60" as="geometry"/></mxCell><mxCell id="7Xwj2gsnW8v6YeENi7_U-18" value="" style="endArrow=none;html=1;entryX=0.5;entryY=1;entryDx=0;entryDy=0;" parent="1" edge="1"><mxGeometry width="50" height="50" relative="1" as="geometry"><mxPoint x="359.5" y="280" as="sourcePoint"/><mxPoint x="360" y="250" as="targetPoint"/></mxGeometry></mxCell><mxCell id="7Xwj2gsnW8v6YeENi7_U-19" value="" style="endArrow=none;html=1;entryX=0.5;entryY=1;entryDx=0;entryDy=0;" parent="1" target="Gvd8Ezxa3fLg7O33Pl0G-1" edge="1"><mxGeometry width="50" height="50" relative="1" as="geometry"><mxPoint x="360" y="190" as="sourcePoint"/><mxPoint x="260" y="180" as="targetPoint"/></mxGeometry></mxCell><mxCell id="7Xwj2gsnW8v6YeENi7_U-22" value="neighbors = query_neighbors(i, eps)" style="shape=process;whiteSpace=wrap;html=1;backgroundOutline=1;" parent="1" vertex="1"><mxGeometry x="287" y="520" width="148" height="50" as="geometry"/></mxCell><mxCell id="12" style="edgeStyle=orthogonalEdgeStyle;rounded=0;orthogonalLoop=1;jettySize=auto;html=1;entryX=0.5;entryY=0;entryDx=0;entryDy=0;endArrow=none;endFill=0;" edge="1" parent="1" source="bSRUe1ibWbnndraF5bIK-1" target="11"><mxGeometry relative="1" as="geometry"><Array as="points"><mxPoint x="488" y="630"/><mxPoint x="488" y="670"/><mxPoint x="488" y="670"/></Array></mxGeometry></mxCell><mxCell id="15" value="Да" style="edgeLabel;html=1;align=center;verticalAlign=middle;resizable=0;points=[];" vertex="1" connectable="0" parent="12"><mxGeometry x="-0.0829" y="-2" relative="1" as="geometry"><mxPoint x="4" y="-22" as="offset"/></mxGeometry></mxCell><mxCell id="13" style="edgeStyle=orthogonalEdgeStyle;rounded=0;orthogonalLoop=1;jettySize=auto;html=1;entryX=0.5;entryY=0;entryDx=0;entryDy=0;endArrow=none;endFill=0;" edge="1" parent="1" source="bSRUe1ibWbnndraF5bIK-1" target="bSRUe1ibWbnndraF5bIK-2"><mxGeometry relative="1" as="geometry"><Array as="points"><mxPoint x="230" y="630"/><mxPoint x="230" y="680"/></Array></mxGeometry></mxCell><mxCell id="14" value="Нет" style="edgeLabel;html=1;align=center;verticalAlign=middle;resizable=0;points=[];" vertex="1" connectable="0" parent="13"><mxGeometry x="-0.3629" relative="1" as="geometry"><mxPoint x="-10" y="-20" as="offset"/></mxGeometry></mxCell><mxCell id="bSRUe1ibWbnndraF5bIK-1" value="| neighbors |&amp;nbsp; &amp;lt; MinPt" style="rhombus;whiteSpace=wrap;html=1;" parent="1" vertex="1"><mxGeometry x="283.25" y="600" width="153.5" height="60" as="geometry"/></mxCell><mxCell id="16" style="edgeStyle=orthogonalEdgeStyle;rounded=0;orthogonalLoop=1;jettySize=auto;html=1;entryX=0.5;entryY=1;entryDx=0;entryDy=0;endArrow=none;endFill=0;" edge="1" parent="1" source="bSRUe1ibWbnndraF5bIK-2" target="7Xwj2gsnW8v6YeENi7_U-1"><mxGeometry relative="1" as="geometry"/></mxCell><mxCell id="bSRUe1ibWbnndraF5bIK-2" value="clusters = EXPANDCLUSTER(clusters, i, neighbors);" style="rounded=0;whiteSpace=wrap;html=1;" parent="1" vertex="1"><mxGeometry x="140" y="680" width="181" height="50" as="geometry"/></mxCell><mxCell id="bSRUe1ibWbnndraF5bIK-3" value="" style="endArrow=none;html=1;entryX=0.5;entryY=1;entryDx=0;entryDy=0;exitX=0.5;exitY=0;exitDx=0;exitDy=0;" parent="1" source="bSRUe1ibWbnndraF5bIK-1" target="7Xwj2gsnW8v6YeENi7_U-22" edge="1"><mxGeometry width="50" height="50" relative="1" as="geometry"><mxPoint x="230" y="710" as="sourcePoint"/><mxPoint x="280" y="660" as="targetPoint"/></mxGeometry></mxCell><mxCell id="3" value="visited = [0, 0,..., 0]&lt;br&gt;|visited| == |P|" style="rounded=0;whiteSpace=wrap;html=1;" vertex="1" parent="1"><mxGeometry x="287.5" y="190" width="145" height="60" as="geometry"/></mxCell><mxCell id="4" value="visited[i] == 1?" style="rhombus;whiteSpace=wrap;html=1;" vertex="1" parent="1"><mxGeometry x="283.25" y="360" width="153.5" height="60" as="geometry"/></mxCell><mxCell id="8" value="" style="edgeStyle=orthogonalEdgeStyle;rounded=0;orthogonalLoop=1;jettySize=auto;html=1;endArrow=none;endFill=0;" edge="1" parent="1" source="7" target="7Xwj2gsnW8v6YeENi7_U-22"><mxGeometry relative="1" as="geometry"/></mxCell><mxCell id="7" value="visited[i] = 1" style="rounded=0;whiteSpace=wrap;html=1;" vertex="1" parent="1"><mxGeometry x="288.5" y="440" width="145" height="50" as="geometry"/></mxCell><mxCell id="17" style="edgeStyle=orthogonalEdgeStyle;rounded=0;orthogonalLoop=1;jettySize=auto;html=1;entryX=0.5;entryY=1;entryDx=0;entryDy=0;endArrow=none;endFill=0;" edge="1" parent="1" source="11" target="7Xwj2gsnW8v6YeENi7_U-1"><mxGeometry relative="1" as="geometry"/></mxCell><mxCell id="11" value="noises = noises + {i}" style="rounded=0;whiteSpace=wrap;html=1;" vertex="1" parent="1"><mxGeometry x="400" y="680" width="175" height="50" as="geometry"/></mxCell></root></mxGraphModel></diagram></mxfile>